inDegrees=no
num_controls=7
num_derivatives=13
num_iterations=80
num_multipliers=7
num_parameters=0
num_slacks=7
num_states=26
objective=0.464114
objective_accelerations=0.014568
objective_balance=0.001198
objective_effort=0.008606
objective_height=0.434055
objective_ligament=0.005688
solver_duration=1158.676576
status=Solve_Succeeded
success=true
DataType=double
version=3
OpenSimVersion=4.5
endheader
time	/jointset/ground_pelvis/pelvis_tilt/value	/jointset/ground_pelvis/pelvis_tx/value	/jointset/ground_pelvis/pelvis_ty/value	/jointset/hip_l/hip_flexion_l/value	/jointset/hip_l/hip_adduction_l/value	/jointset/hip_l/hip_rotation_l/value	/jointset/back/lumbar_extension/value	/jointset/patellofemoral_l/patellar_flexion_l/value	/jointset/knee_l/knee_flexion_l/value	/jointset/knee_l/knee_adduction_l/value	/jointset/knee_l/knee_rotation_l/value	/jointset/ankle_l/ankle_angle_l/value	/jointset/subtalar_l/subtalar_angle_l/value	/jointset/ground_pelvis/pelvis_tilt/speed	/jointset/ground_pelvis/pelvis_tx/speed	/jointset/ground_pelvis/pelvis_ty/speed	/jointset/hip_l/hip_flexion_l/speed	/jointset/hip_l/hip_adduction_l/speed	/jointset/hip_l/hip_rotation_l/speed	/jointset/back/lumbar_extension/speed	/jointset/patellofemoral_l/patellar_flexion_l/speed	/jointset/knee_l/knee_flexion_l/speed	/jointset/knee_l/knee_adduction_l/speed	/jointset/knee_l/knee_rotation_l/speed	/jointset/ankle_l/ankle_angle_l/speed	/jointset/subtalar_l/subtalar_angle_l/speed	/forceset/tau_hip_flexion_l	/forceset/tau_hip_adduction_l	/forceset/tau_hip_rotation_l	/forceset/tau_knee_flexion_l	/forceset/tau_ankle_angle_l	/forceset/tau_subtalar_angle_l	/forceset/tau_lumbar_extension	lambda_cid13_p0	lambda_cid13_p1	lambda_cid13_p2	lambda_cid13_p3	lambda_cid13_p4	lambda_cid13_p5	lambda_cid14_p0	/jointset/ground_pelvis/pelvis_tilt/accel	/jointset/ground_pelvis/pelvis_tx/accel	/jointset/ground_pelvis/pelvis_ty/accel	/jointset/hip_l/hip_flexion_l/accel	/jointset/hip_l/hip_adduction_l/accel	/jointset/hip_l/hip_rotation_l/accel	/jointset/back/lumbar_extension/accel	/jointset/patellofemoral_l/patellar_flexion_l/accel	/jointset/knee_l/knee_flexion_l/accel	/jointset/knee_l/knee_adduction_l/accel	/jointset/knee_l/knee_rotation_l/accel	/jointset/ankle_l/ankle_angle_l/accel	/jointset/subtalar_l/subtalar_angle_l/accel	gamma_cid13_p0	gamma_cid13_p1	gamma_cid13_p2	gamma_cid13_p3	gamma_cid13_p4	gamma_cid13_p5	gamma_cid14_p0
0.5	0.01435909853973651	0.1165128131445131	0.8742325079227873	0.240949451519185	-0.3989647915146074	-0.4195138158171799	-0.2268026787556084	0.3966233568922833	0.3966233568919115	-0.1740206578870003	-0.1692550462937958	0.1559588080546299	0.04393254697866272	0.1635775189434258	0.1355173079760579	-0.09275466796254853	0.117377542495222	-0.2011052565092878	0.2974021441002921	-0.1863730661687951	0.892405457009552	0.8924054570095366	-0.0006469537625922063	-0.02970432919771843	0.6301227141660038	0.1397554606067923	0.007711132332921312	0.04213611760131949	-0.01696285901297029	-0.1857884428545221	0.002230915198477151	-0.01722249807153141	0.04705541627491213	-34.82810993627513	8.192442407483183	4.509449007203984	3.703893957900897	-540.4196551235303	-48.42633053879003	-40.74873229083452	-0.1218220825999043	-0.009754274853848034	-0.1313144482794268	-0.09138874457106209	0.1903671819736905	-0.1115093572114428	0.411001041864905	-0.5200880118168971	-0.5200880118169111	-0.006938755832548368	0.06566708414865016	-0.2324151883777279	0.1627972119708354	2.315289594235937e-08	-3.575848050050535e-08	-6.975808429644713e-08	-1.141009449673827e-08	1.905915979367906e-08	4.994497565611804e-08	6.441222936094237e-09
0.51	0.01598840913801929	0.1178673008197878	0.8732985516205081	0.2421187029014156	-0.4009660771095154	-0.4165460458324921	-0.2286455408187337	0.4055203338907933	0.4055203338905378	-0.1740273021348572	-0.1695490031316584	0.1622475992210671	0.04533809808438919	0.1622576142118438	0.1353608763767046	-0.09401850449515728	0.1164575394108623	-0.1991295532802382	0.2961108222054761	-0.1821780411771374	0.8868680057552472	0.8868680057552236	-0.0006834452793728173	-0.02907944093304636	0.6275485049322493	0.1413330739596568	0.007477734912663321	0.04404370224530675	-0.01676667624683008	-0.186723414649796	-0.001940148913432483	-0.01706214705661202	0.04746305204000138	-36.1769417458079	8.412160931738587	4.413665964030143	4.306813327140281	-541.016207497176	-48.16460418559942	-40.59193316623806	-0.1411178764772175	-0.02149259383127552	-0.1212005104783461	-0.09458004131226479	0.204535419777466	-0.1440911340787836	0.4269490198654453	-0.5888656629317542	-0.5888656629329545	-0.00225056069082615	0.06202771512458565	-0.2829744665100167	0.152004439081516	2.709548392476363e-08	-3.118273284850409e-08	-8.192532948020664e-08	-1.187179335754161e-08	2.580250249931873e-08	6.371372991027189e-08	8.037319848188557e-09
0.52	0.01760371204737422	0.1192196431807978	0.8723525005019576	0.243278299462609	-0.4029469329668521	-0.4135924185724436	-0.2304458134735339	0.4143582779806208	0.4143582779804832	-0.1740343605400964	-0.1698364854833779	0.1685080381600397	0.0467587775320717	0.1607759811586773	0.1350882451231122	-0.09517363121680238	0.1154465782887488	-0.1970193089949133	0.2945735991721786	-0.1778551845035016	0.8805988752731631	0.8805988752731315	-0.0007297852397495858	-0.02840943196844603	0.624452268673067	0.1427811289980142	0.00724433749238682	0.04595128688929666	-0.01657049348066856	-0.1876583864450754	-0.006111213025340778	-0.01690179604168877	0.04787068780507164	-37.52907741003182	8.634208716520291	4.315511915504521	4.915812794380416	-541.6573575001469	-47.90739061836508	-40.42867505204693	-0.1541677469167585	-0.03299420570171697	-0.1095724860866909	-0.1095803521218223	0.2172753932287659	-0.1606895849077338	0.4365673782605834	-0.6664238573727322	-0.666423857372765	-0.00890844455174904	0.07469122413429087	-0.3368205934633243	0.1368855490694002	3.077511007569217e-08	-2.425725482030412e-08	-9.390861017984843e-08	-1.17553027442263e-08	3.201484953187455e-08	7.83687187184182e-08	9.727837895523968e-09
0.53	0.01920333777543384	0.12056868669997	0.8713954449147394	0.2444274487670072	-0.404906024557467	-0.410655404486424	-0.2322021982812387	0.4231299953055999	0.4231299953053982	-0.1740418614376453	-0.1701170772309283	0.1747349699904845	0.04819331016558866	0.1591224664984671	0.134702087318395	-0.09621807150454045	0.1143685720320573	-0.1947785035619647	0.2927897545167313	-0.1734045418209521	0.8736268896305056	0.8736268896304796	-0.0007725081190334494	-0.02770125011558193	0.6208498915633254	0.1441023275376339	0.00710410017412343	0.04774653852628659	-0.01640137438926785	-0.1887442687194351	-0.01004039703209659	-0.01675114472838283	0.04820510733819455	-38.80352888317987	8.85058962134897	4.214009206782865	5.463163081723334	-542.2851002878012	-47.66629717668571	-40.25898979037868	-0.1749429930063573	-0.04418461574387463	-0.09896053618516969	-0.1091116996540693	0.2305788378083252	-0.193140917943545	0.4518979959033598	-0.7302430547087374	-0.7302430547078764	-0.002285379806199819	0.07001602407354099	-0.3845747210557671	0.1262910557639904	3.411825473844664e-08	-1.928172749984868e-08	-1.04830588958016e-07	-1.188101045527055e-08	3.761786643992492e-08	9.114606937738007e-08	1.117846668685334e-08
0.54	0.02078562842340084	0.1219133170315174	0.8704285287774306	0.2455653778213905	-0.406842088949857	-0.4077374106493734	-0.2339135596055892	0.4318284613467536	0.4318284613464871	-0.1740498557980222	-0.1703903602883085	0.1809233523595667	0.0496403655943729	0.1573089651409385	0.1342056075981619	-0.09714574123496836	0.1132025282869151	-0.1924138693497986	0.2907695493780743	-0.1688504878323455	0.8659486185079879	0.8659486185079676	-0.0008284778058929524	-0.02694769393427054	0.6167423764005365	0.1452856880514853	0.006963862855830938	0.04954179016327973	-0.01623225529786026	-0.1898301509938025	-0.01396958103885205	-0.0166004934150727	0.04853952687129033	-40.08229972225434	9.069285924772309	4.110356628857905	6.020011907275093	-542.9707903073311	-47.43138066570494	-40.08296761097041	-0.1861650863804078	-0.05505858880494804	-0.08621837462464893	-0.1271878498119516	0.2420411490722872	-0.2079616815496451	0.4572496394720682	-0.8076809533448241	-0.807680953344831	-0.01155780606684405	0.08376608982374191	-0.4378482040728039	0.1093179439157097	3.708912201002979e-08	-1.646359245179146e-08	-1.145783613549782e-07	-1.227468226986155e-08	4.254673086979906e-08	1.018460331478826e-07	1.2363686088559e-08
0.55	0.02234895228775143	0.1232524287661523	0.8694529239327646	0.2466913095362665	-0.4087538944036063	-0.4048408455408484	-0.2355788254807506	0.4404467268255462	0.4404467268254465	-0.1740583963007858	-0.1706559450634347	0.187068180291915	0.0510985789640469	0.1553305462558263	0.1335982283730287	-0.09795452539691912	0.1119702484350161	-0.1899277983504553	0.288503350995419	-0.1641868377971077	0.857591345029852	0.8575913450298387	-0.0008802260681249733	-0.02616362022396723	0.6121406144562755	0.1463325690557323	0.006828433794045007	0.05131399379051369	-0.01606774257537185	-0.1908845195287512	-0.01788503262626528	-0.01643951299160707	0.04886575468196454	-41.35483290024015	9.283316131890196	4.006406078531274	6.568242717051898	-543.6289262587544	-47.20704689427651	-39.90074763333257	-0.207464073395957	-0.06635673073267909	-0.07509404473248991	-0.1232767946998552	0.2548262991638552	-0.2419541771797154	0.4733000961441963	-0.8667229802149659	-0.8667229802139099	-0.00208892253791695	0.07655508252353906	-0.4837264433459161	0.09872656937017024	3.973507394821387e-08	-1.289766291262999e-08	-1.235229194199412e-07	-1.241520856125184e-08	4.700091457328576e-08	1.121952121850327e-07	1.347654388487157e-08
0.5600000000000001	0.02389173520648335	0.1245849108802627	0.8684698541249288	0.2478045127042531	-0.4106402519026033	-0.4019681434682597	-0.2371969793734423	0.4489780250825252	0.44897802508259	-0.174067475403417	-0.1709135236872789	0.193164513354072	0.05256653182190148	0.1532007760179508	0.1328796834932594	-0.09863873386894431	0.1106568189102766	-0.1873242783991703	0.2859969421905167	-0.1594280913380803	0.8485551741450355	0.8485551741450291	-0.0009361977798144181	-0.0253464636780628	0.6070434023622882	0.1472335856876212	0.00669300473222493	0.05308619741775113	-0.01590322985288658	-0.1919388880637083	-0.02180048421367867	-0.01627853256813706	0.04919198249260792	-42.63259242750829	9.499575532360168	3.900599264998597	7.128985774037815	-544.3571022347757	-46.99052768758074	-39.71252819368318	-0.2164353569330077	-0.07729171973222289	-0.06130323663952902	-0.1434177843800501	0.2655309394606615	-0.2560037659990277	0.4762689242300309	-0.9434604346809796	-0.9434604346809815	-0.01240249595829407	0.09038265694396486	-0.5369382340181128	0.08014506944407336	4.199112748631906e-08	-8.434379984143431e-09	-1.315036202865053e-07	-1.225196022480128e-08	5.088548140510756e-08	1.221234495421598e-07	1.450256775471245e-08
0.5700000000000001	0.02541242741645977	0.1259096595603428	0.8674805668282219	0.2489042666066839	-0.4124999991798461	-0.3991217250433728	-0.2387670561337342	0.4574156737180732	0.4574156737179703	-0.1740770790819154	-0.171162804927547	0.1992074520097872	0.05404277614827929	0.1509128077876005	0.1320523920998215	-0.09919708088276694	0.1092814540145081	-0.1846074270465397	0.2832472148930714	-0.1545745036618832	0.8388663323480888	0.8388663323480704	-0.0009852733632892746	-0.02450547580376464	0.6014645930574778	0.1479894120793301	0.006628767482592981	0.05473865643792493	-0.01575990682242656	-0.1930847606168287	-0.02551795085988782	-0.01610779256788371	0.04945940856094378	-43.84368416263447	9.701666811711675	3.795059585394697	7.63179087468925	-545.0365445658848	-46.80320399784134	-39.51855054606706	-0.2387007085422037	-0.08809934461706435	-0.0498431287306183	-0.1364655471002067	0.2774494832347232	-0.2903713288043757	0.4918172482431714	-0.9978321612936154	-0.9978321612954097	-0.001285552098975196	0.08158135360527376	-0.5803089286704347	0.06943763279953101	4.414685112078405e-08	-4.110675205884459e-09	-1.394990941643668e-07	-1.202662447059787e-08	5.43306977956776e-08	1.31880148695227e-07	1.554337359653576e-08
0.58	0.02690949531363794	0.1272256050273949	0.8664863475223816	0.249989892919165	-0.4143320404935494	-0.3963039867148961	-0.2402882143054801	0.465753186713834	0.4657531867135605	-0.1740871986087562	-0.171403551388886	0.2051922112424628	0.05552580598032713	0.1484759134590141	0.1311190408876564	-0.09962513569566446	0.1078313009217403	-0.1817830856910895	0.2802609229081448	-0.1496443736285351	0.8285280461874572	0.8285280461874268	-0.00103936744903623	-0.02363950789216038	0.59540751775435	0.1485906868216507	0.006564530232914875	0.05639111545810176	-0.01561658379196265	-0.1942306331699631	-0.02923541750609889	-0.01593705256762776	0.04972683462924033	-45.06079748402595	9.905811473135262	3.688051530915894	8.149651491149871	-545.7967604088899	-46.62526374058056	-39.31911216837339	-0.2462205765801707	-0.09850368347769689	-0.03524479645450478	-0.1583754237798913	0.2870289400245701	-0.303316703495281	0.4915773956602627	-1.07334930741797	-1.073349307417971	-0.01340619641267734	0.09537866440518974	-0.6325914336816436	0.04923473956636927	4.617191255515946e-08	3.125337672924724e-11	-1.475138073127551e-07	-1.172043068397215e-08	5.720373686740814e-08	1.4141344925696e-07	1.660343037861526e-08
